<svg width="24" height="24" viewBox="0 0 24 24" fill="none" xmlns="http://www.w3.org/2000/svg">
<mask id="path-1-inside-1" fill="white">
<path fill-rule="evenodd" clip-rule="evenodd" d="M17.2691 1.21566C14.2402 1.98608 12 4.73142 12 8C12 11.866 15.134 15 19 15C20.9403 15 22.6962 14.2106 23.9641 12.9354C23.4868 19.1256 18.3126 24 12 24C5.37258 24 0 18.6274 0 12C0 5.37258 5.37258 0 12 0C13.8903 0 15.6785 0.437067 17.2691 1.21566Z"/>
</mask>
<path d="M17.2691 1.21566L17.7621 3.15393L23.0368 1.81222L18.1484 -0.580677L17.2691 1.21566ZM23.9641 12.9354L25.9582 13.0891L26.3757 7.67317L22.5458 11.5252L23.9641 12.9354ZM14 8C14 5.66803 15.5983 3.70433 17.7621 3.15393L16.776 -0.722621C12.8822 0.267839 10 3.79482 10 8H14ZM19 13C16.2386 13 14 10.7614 14 8H10C10 12.9706 14.0294 17 19 17V13ZM22.5458 11.5252C21.6379 12.4383 20.3864 13 19 13V17C21.4942 17 23.7545 15.9828 25.3824 14.3455L22.5458 11.5252ZM21.97 12.7816C21.5724 17.9381 17.2596 22 12 22V26C19.3657 26 25.4012 20.3131 25.9582 13.0891L21.97 12.7816ZM12 22C6.47715 22 2 17.5228 2 12H-2C-2 19.732 4.26801 26 12 26V22ZM2 12C2 6.47715 6.47715 2 12 2V-2C4.26801 -2 -2 4.26801 -2 12H2ZM12 2C13.5789 2 15.0669 2.36446 16.3897 3.01199L18.1484 -0.580677C16.2901 -1.49032 14.2017 -2 12 -2V2Z" fill="#0D3F67" mask="url(#path-1-inside-1)"/>
</svg>
